<svg width="410" height="53" viewBox="0 0 410 53" fill="none" xmlns="http://www.w3.org/2000/svg">
<path d="M388.317 52.864C384.285 52.864 380.421 52.336 376.725 51.28C373.029 50.176 370.053 48.76 367.797 47.032L371.757 38.248C373.917 39.784 376.461 41.056 379.389 42.064C382.365 43.024 385.365 43.504 388.389 43.504C390.693 43.504 392.541 43.288 393.933 42.856C395.373 42.376 396.429 41.728 397.101 40.912C397.773 40.096 398.109 39.16 398.109 38.104C398.109 36.76 397.581 35.704 396.525 34.936C395.469 34.12 394.077 33.472 392.349 32.992C390.621 32.464 388.701 31.984 386.589 31.552C384.525 31.072 382.437 30.496 380.325 29.824C378.261 29.152 376.365 28.288 374.637 27.232C372.909 26.176 371.493 24.784 370.389 23.056C369.333 21.328 368.805 19.12 368.805 16.432C368.805 13.552 369.573 10.936 371.109 8.58396C372.693 6.18396 375.045 4.28796 378.165 2.89596C381.333 1.45596 385.293 0.735962 390.045 0.735962C393.213 0.735962 396.333 1.11996 399.405 1.88796C402.477 2.60796 405.189 3.71196 407.541 5.19996L403.941 14.056C401.589 12.712 399.237 11.728 396.885 11.104C394.533 10.432 392.229 10.096 389.973 10.096C387.717 10.096 385.869 10.36 384.429 10.888C382.989 11.416 381.957 12.112 381.333 12.976C380.709 13.792 380.397 14.752 380.397 15.856C380.397 17.152 380.925 18.208 381.981 19.024C383.037 19.792 384.429 20.416 386.157 20.896C387.885 21.376 389.781 21.856 391.845 22.336C393.957 22.816 396.045 23.368 398.109 23.992C400.221 24.616 402.141 25.456 403.869 26.512C405.597 27.568 406.989 28.96 408.045 30.688C409.149 32.416 409.701 34.6 409.701 37.24C409.701 40.072 408.909 42.664 407.325 45.016C405.741 47.368 403.365 49.264 400.197 50.704C397.077 52.144 393.117 52.864 388.317 52.864Z" fill="white"/>
<path d="M334.181 21.904H358.445V30.976H334.181V21.904ZM335.045 42.64H362.477V52H323.453V1.59998H361.541V10.96H335.045V42.64Z" fill="white"/>
<path d="M280 52V1.59998H291.664V42.496H316.935V52H280Z" fill="white"/>
<path d="M218.25 52L240.714 1.59998H252.234L274.771 52H262.53L244.098 7.50398H248.706L230.202 52H218.25ZM229.482 41.2L232.578 32.344H258.498L261.667 41.2H229.482Z" fill="white"/>
<path d="M195.52 52.864C191.488 52.864 187.624 52.336 183.928 51.28C180.232 50.176 177.256 48.76 175 47.032L178.96 38.248C181.12 39.784 183.664 41.056 186.592 42.064C189.568 43.024 192.568 43.504 195.592 43.504C197.896 43.504 199.744 43.288 201.136 42.856C202.576 42.376 203.632 41.728 204.304 40.912C204.976 40.096 205.312 39.16 205.312 38.104C205.312 36.76 204.784 35.704 203.728 34.936C202.672 34.12 201.28 33.472 199.552 32.992C197.824 32.464 195.904 31.984 193.792 31.552C191.728 31.072 189.64 30.496 187.528 29.824C185.464 29.152 183.568 28.288 181.84 27.232C180.112 26.176 178.696 24.784 177.592 23.056C176.536 21.328 176.008 19.12 176.008 16.432C176.008 13.552 176.776 10.936 178.312 8.58396C179.896 6.18396 182.248 4.28796 185.368 2.89596C188.536 1.45596 192.496 0.735962 197.248 0.735962C200.416 0.735962 203.536 1.11996 206.608 1.88796C209.68 2.60796 212.392 3.71196 214.744 5.19996L211.144 14.056C208.792 12.712 206.44 11.728 204.088 11.104C201.736 10.432 199.432 10.096 197.176 10.096C194.92 10.096 193.072 10.36 191.632 10.888C190.192 11.416 189.16 12.112 188.536 12.976C187.912 13.792 187.6 14.752 187.6 15.856C187.6 17.152 188.128 18.208 189.184 19.024C190.24 19.792 191.632 20.416 193.36 20.896C195.088 21.376 196.984 21.856 199.048 22.336C201.16 22.816 203.248 23.368 205.312 23.992C207.424 24.616 209.344 25.456 211.072 26.512C212.8 27.568 214.192 28.96 215.248 30.688C216.352 32.416 216.904 34.6 216.904 37.24C216.904 40.072 216.112 42.664 214.528 45.016C212.944 47.368 210.568 49.264 207.4 50.704C204.28 52.144 200.32 52.864 195.52 52.864Z" fill="white"/>
<path d="M121.519 52L144.559 1.59998H149.815L172.855 52H167.239L146.071 4.69598H148.231L127.063 52H121.519ZM130.591 38.536L132.175 34.216H161.479L163.063 38.536H130.591Z" fill="white"/>
<path d="M86.1709 24.136H112.811V28.672H86.1709V24.136ZM86.7469 47.392H117.059V52H81.4189V1.59998H115.979V6.20798H86.7469V47.392Z" fill="white"/>
<path d="M21.9346 52V1.59998H42.4546C47.8306 1.59998 52.5346 2.67998 56.5666 4.83998C60.6466 6.95198 63.8146 9.90398 66.0706 13.696C68.3266 17.488 69.4546 21.856 69.4546 26.8C69.4546 31.744 68.3266 36.112 66.0706 39.904C63.8146 43.696 60.6466 46.672 56.5666 48.832C52.5346 50.944 47.8306 52 42.4546 52H21.9346ZM27.2626 47.392H42.1666C46.6306 47.392 50.4946 46.528 53.7586 44.8C57.0706 43.024 59.6386 40.6 61.4626 37.528C63.2866 34.408 64.1986 30.832 64.1986 26.8C64.1986 22.72 63.2866 19.144 61.4626 16.072C59.6386 13 57.0706 10.6 53.7586 8.87198C50.4946 7.09598 46.6306 6.20798 42.1666 6.20798H27.2626V47.392Z" fill="white"/>
<path d="M0.208008 52V1.59998H5.53601V52H0.208008Z" fill="white"/>
</svg>
